<?xml version="1.0" standalone="no"?>
<!DOCTYPE svg PUBLIC "-//W3C//DTD SVG 20010904//EN"
 "http://www.w3.org/TR/2001/REC-SVG-20010904/DTD/svg10.dtd">
<svg version="1.0" xmlns="http://www.w3.org/2000/svg"
 width="64.000000pt" height="64.000000pt" viewBox="0 0 64.000000 64.000000"
 preserveAspectRatio="xMidYMid meet">

<g transform="translate(0.000000,64.000000) scale(0.100000,-0.100000)"
fill="#000000" stroke="none">
<path d="M365 610 c3 -5 11 -10 16 -10 6 0 7 5 4 10 -3 6 -11 10 -16 10 -6 0
-7 -4 -4 -10z"/>
<path d="M270 600 c0 -5 5 -10 10 -10 6 0 10 5 10 10 0 6 -4 10 -10 10 -5 0
-10 -4 -10 -10z"/>
<path d="M225 590 c-3 -5 -1 -10 4 -10 6 0 11 5 11 10 0 6 -2 10 -4 10 -3 0
-8 -4 -11 -10z"/>
<path d="M170 569 c0 -5 5 -7 10 -4 6 3 10 8 10 11 0 2 -4 4 -10 4 -5 0 -10
-5 -10 -11z"/>
<path d="M335 570 c-9 -15 -1 -23 21 -18 15 3 16 4 1 16 -11 9 -17 10 -22 2z"/>
<path d="M390 572 c0 -5 7 -13 16 -16 10 -4 14 -1 12 6 -5 15 -28 23 -28 10z"/>
<path d="M445 570 c3 -5 11 -10 16 -10 6 0 7 5 4 10 -3 6 -11 10 -16 10 -6 0
-7 -4 -4 -10z"/>
<path d="M274 559 c-11 -18 11 -32 25 -16 9 12 8 16 -3 20 -9 4 -18 1 -22 -4z"/>
<path d="M210 534 c0 -9 5 -14 12 -12 18 6 21 28 4 28 -9 0 -16 -7 -16 -16z"/>
<path d="M520 531 c0 -5 5 -13 10 -16 6 -3 10 -2 10 4 0 5 -4 13 -10 16 -5 3
-10 2 -10 -4z"/>
<path d="M476 515 c4 -8 10 -15 15 -15 5 0 9 7 9 15 0 8 -7 15 -15 15 -9 0
-12 -6 -9 -15z"/>
<path d="M143 493 c-3 -10 -8 -22 -11 -26 -2 -5 4 -5 14 1 11 5 25 11 32 13 8
3 5 8 -8 17 -17 11 -21 10 -27 -5z"/>
<path d="M410 479 c1 -13 7 -35 15 -49 23 -39 18 -101 -11 -156 l-26 -49 27
25 c67 61 73 188 12 239 -15 12 -17 11 -17 -10z"/>
<path d="M550 475 c0 -18 19 -40 26 -32 4 4 0 15 -9 24 -9 10 -17 13 -17 8z"/>
<path d="M136 449 c-50 -40 -26 -122 41 -135 25 -5 33 -2 42 15 14 25 34 27
51 6 7 -8 28 -15 46 -15 26 0 34 4 34 19 0 32 -44 85 -90 109 -55 27 -90 28
-124 1z"/>
<path d="M340 457 c0 -9 10 -35 21 -57 17 -32 20 -53 17 -100 -5 -63 5 -61 23
4 8 29 8 50 -1 82 -13 46 -60 102 -60 71z"/>
<path d="M57 437 c-11 -29 -9 -43 4 -30 6 6 9 19 7 29 -3 18 -4 18 -11 1z"/>
<path d="M517 423 c-4 -3 -7 -22 -7 -42 -1 -69 -46 -137 -110 -165 -8 -3 -1
-4 15 -1 71 13 117 72 123 155 4 55 -3 72 -21 53z"/>
<path d="M580 388 c0 -16 5 -28 10 -28 13 0 13 20 0 40 -8 12 -10 9 -10 -12z"/>
<path d="M617 389 c4 -13 8 -18 11 -10 2 7 -1 18 -6 23 -8 8 -9 4 -5 -13z"/>
<path d="M50 349 c0 -11 4 -17 10 -14 13 8 13 35 0 35 -5 0 -10 -9 -10 -21z"/>
<path d="M22 340 c0 -14 2 -19 5 -12 2 6 2 18 0 25 -3 6 -5 1 -5 -13z"/>
<path d="M590 305 c0 -15 4 -24 10 -20 6 3 10 12 10 20 0 8 -4 17 -10 20 -6 4
-10 -5 -10 -20z"/>
<path d="M631 314 c0 -11 3 -14 6 -6 3 7 2 16 -1 19 -3 4 -6 -2 -5 -13z"/>
<path d="M104 295 c-4 -9 0 -24 10 -33 15 -15 16 -14 16 10 0 32 -17 46 -26
23z"/>
<path d="M323 297 c-12 -6 -25 -22 -28 -34 -7 -31 -49 -51 -70 -33 -20 17 -19
37 3 50 15 9 14 10 -8 8 -18 -2 -26 -10 -28 -26 -9 -62 82 -85 130 -34 26 27
48 83 32 81 -5 -1 -19 -6 -31 -12z"/>
<path d="M60 271 c0 -11 5 -23 10 -26 6 -3 10 3 10 14 0 11 -4 23 -10 26 -5 3
-10 -3 -10 -14z"/>
<path d="M31 254 c0 -11 3 -14 6 -6 3 7 2 16 -1 19 -3 4 -6 -2 -5 -13z"/>
<path d="M592 230 c0 -14 2 -19 5 -12 2 6 2 18 0 25 -3 6 -5 1 -5 -13z"/>
<path d="M124 205 c3 -9 6 -19 6 -21 0 -2 7 -4 16 -4 22 0 13 34 -10 38 -14 3
-17 0 -12 -13z"/>
<path d="M80 203 c0 -14 19 -38 25 -32 8 8 -5 39 -16 39 -5 0 -9 -3 -9 -7z"/>
<path d="M50 191 c0 -6 4 -13 10 -16 6 -3 7 1 4 9 -7 18 -14 21 -14 7z"/>
<path d="M373 190 c-35 -14 -27 -18 18 -10 52 10 115 2 130 -17 10 -11 3 -13
-42 -7 -31 3 -72 1 -96 -5 -33 -9 -47 -9 -63 1 -16 10 -24 10 -40 0 -16 -9
-30 -10 -65 -1 -25 6 -48 9 -51 6 -3 -2 17 -10 45 -17 36 -9 55 -9 70 0 15 7
27 8 40 0 13 -6 36 -7 70 0 33 6 69 6 102 0 29 -6 53 -10 55 -10 1 0 -1 12 -5
27 -5 17 -17 30 -32 34 -35 10 -110 9 -136 -1z"/>
<path d="M575 169 c-4 -6 -5 -12 -2 -15 2 -3 7 2 10 11 7 17 1 20 -8 4z"/>
<path d="M120 125 c7 -9 15 -13 17 -11 7 7 -7 26 -19 26 -6 0 -6 -6 2 -15z"/>
<path d="M250 86 c0 -9 7 -16 16 -16 9 0 14 5 12 12 -6 18 -28 21 -28 4z"/>
<path d="M200 81 c0 -5 7 -12 16 -15 14 -5 15 -4 4 9 -14 17 -20 19 -20 6z"/>
<path d="M167 69 c7 -7 15 -10 18 -7 3 3 -2 9 -12 12 -14 6 -15 5 -6 -5z"/>
<path d="M430 69 c0 -5 5 -7 10 -4 6 3 10 8 10 11 0 2 -4 4 -10 4 -5 0 -10 -5
-10 -11z"/>
<path d="M380 60 c0 -5 5 -10 10 -10 6 0 10 5 10 10 0 6 -4 10 -10 10 -5 0
-10 -4 -10 -10z"/>
<path d="M330 50 c0 -5 5 -10 10 -10 6 0 10 5 10 10 0 6 -4 10 -10 10 -5 0
-10 -4 -10 -10z"/>
<path d="M285 40 c3 -5 11 -10 16 -10 6 0 7 5 4 10 -3 6 -11 10 -16 10 -6 0
-7 -4 -4 -10z"/>
</g>
</svg>
